# xmcd
#
# Track frame offsets: 
#        150
#        13147
#        64062
#        78992
#        91985
#        106882
#        119270
#        133282
#        144980
#        156392
#        171200
#        184415
#        200030
#        213740
#        224167
#        236990
#
# Disc length: 3317 seconds
#
# Revision: 0
# Processed by: cddbd v1.5.2PL0 Copyright (c) Steve Scherf et al.
# Submitted via: ExactAudioCopy v0.99pb5
#
DISCID=fe0cf310
DTITLE=정악구락부, 조선정악단, 조선여자정악단 - 07 정악의 원류를찾아서
DTITLE=(기악편) 1_2
DYEAR=1931
DGENRE=국악
TTITLE0=현악영산회상 - 상령산
TTITLE1=현악영산회상 - 타령
TTITLE2=현악영산회상 - 중령산
TTITLE3=현악영산회상 - 세령산
TTITLE4=현악영산회상 - 세령산 가락덜이
TTITLE5=현악영산회상 - 가락덜이 상현도드리
TTITLE6=현악영산회상 - 상현도드리 하현도드리
TTITLE7=현악영산회상 - 하현도드리 염불도드리
TTITLE8=현악영산회상 - 염불도드리
TTITLE9=현악영산회상 - 타령
TTITLE10=현악영산회상 - 군악
TTITLE11=현악영산회상 - 염불
TTITLE12=현악영산회상 - 타령 군악
TTITLE13=천년만세 - 계면가락도드리
TTITLE14=천년만세 - 양청도드리
TTITLE15=천년만세 - 우조가락도드리
EXTD=
EXTT0=
EXTT1=
EXTT2=
EXTT3=
EXTT4=
EXTT5=
EXTT6=
EXTT7=
EXTT8=
EXTT9=
EXTT10=
EXTT11=
EXTT12=
EXTT13=
EXTT14=
EXTT15=
PLAYORDER=
